<svg width="970" height="856" viewBox="0 0 970 856" fill="none" xmlns="http://www.w3.org/2000/svg">
<g opacity="0.7">
<path fill-rule="evenodd" clip-rule="evenodd" d="M66.3932 427.151C76.6594 379.873 155.938 285.534 198.799 249.93C238.629 216.843 258.956 204.179 316.393 192.436C371.484 181.173 457.141 196.599 513.893 201.406C586.623 207.566 690.534 171.856 727.772 218.96C766.079 267.415 692.746 324.216 671.692 378.254C657.696 414.176 647.065 448.428 625.246 482.1C598.096 523.998 588.363 583.119 529.329 597.955C470.378 612.769 420.581 557.908 359.576 548.861C284.492 537.727 191.034 579.301 135.895 539.612C82.4951 501.174 54.5156 481.85 66.3932 427.151Z" fill="url(#paint0_linear_58280_111)" fill-opacity="0.3"/>
<path fill-rule="evenodd" clip-rule="evenodd" d="M178.028 446.623C179.259 404.531 192.631 363.226 224.139 328.328C253.42 295.897 298.692 275.171 346.779 259.718C392.901 244.895 432.707 260.702 482.894 259.718C547.212 258.457 639.481 215.577 679.575 253.19C720.821 291.884 666.241 348.009 656.721 396.968C650.392 429.513 646.72 460.299 633.215 491.599C616.41 530.544 617.573 582.898 568.601 601.188C519.697 619.454 467.406 576.231 412.825 573.912C345.647 571.058 271.066 615.761 216.597 586.232C163.846 557.634 176.604 495.321 178.028 446.623Z" fill="url(#paint1_linear_58280_111)" fill-opacity="0.4"/>
<path fill-rule="evenodd" clip-rule="evenodd" d="M277.019 439.733C292.347 401.142 318.608 365.565 359.436 339.315C397.378 314.92 446.123 304.335 495.685 299.142C543.222 294.161 588.736 301.856 635.357 310.404C695.104 321.359 780.534 313.579 804.83 355.825C829.823 399.283 760.559 440.766 735.268 484.127C718.457 512.952 704.69 540.654 681.679 566.978C653.046 599.732 636.466 648.237 585.131 655.88C533.866 663.512 500.212 613.795 450.653 601.372C389.657 586.083 305.796 613.261 265.514 575.763C226.505 539.448 259.284 484.38 277.019 439.733Z" fill="url(#paint2_linear_58280_111)" fill-opacity="0.6"/>
</g>
<defs>
<linearGradient id="paint0_linear_58280_111" x1="637.568" y1="541.651" x2="212.192" y2="284.929" gradientUnits="userSpaceOnUse">
<stop stop-color="#9EE6F7" stop-opacity="0"/>
<stop offset="1" stop-color="#9EE6F7" stop-opacity="0.46"/>
</linearGradient>
<linearGradient id="paint1_linear_58280_111" x1="649.578" y1="552.578" x2="229.501" y2="388.095" gradientUnits="userSpaceOnUse">
<stop stop-color="#9EE6F7" stop-opacity="0"/>
<stop offset="1" stop-color="#9EE6F7" stop-opacity="0.46"/>
</linearGradient>
<linearGradient id="paint2_linear_58280_111" x1="676.209" y1="626.303" x2="365.013" y2="370.194" gradientUnits="userSpaceOnUse">
<stop stop-color="#005AE2"/>
<stop offset="1" stop-color="#73E6FF" stop-opacity="0.38"/>
</linearGradient>
</defs>
</svg>
